<?xml version="1.0" encoding="iso-8859-1"?>
<!-- Uploaded to: SVG Repo, www.svgrepo.com, Generator: SVG Repo Mixer Tools -->
<svg fill="#000000" height="800px" width="800px" version="1.1" id="Capa_1" xmlns="http://www.w3.org/2000/svg" xmlns:xlink="http://www.w3.org/1999/xlink" 
	 viewBox="0 0 56 56" xml:space="preserve">
<g>
	<path d="M45.367,18H36V8h3c2.206,0,4-1.794,4-4s-1.794-4-4-4H17c-2.206,0-4,1.794-4,4s1.794,4,4,4h3v10h-9.367
		C9.732,18,9,18.732,9,19.633v34.734C9,55.268,9.732,56,10.633,56h34.734c0.9,0,1.633-0.732,1.633-1.633V19.633
		C47,18.732,46.268,18,45.367,18z M17,6c-1.103,0-2-0.897-2-2s0.897-2,2-2h3v2c0,0.552,0.448,1,1,1s1-0.448,1-1V2h17
		c1.103,0,2,0.897,2,2s-0.897,2-2,2h-3h-5v5.812c0,1.386-0.861,2.596-2.049,3.019c-0.065,0.022-0.13,0.044-0.197,0.061
		c-0.098,0.027-0.199,0.046-0.3,0.062c-0.094,0.014-0.189,0.023-0.285,0.029c-0.123,0.007-0.244,0.005-0.364-0.003
		c-0.097-0.006-0.194-0.014-0.289-0.029c-0.115-0.019-0.227-0.048-0.338-0.08c-0.088-0.025-0.177-0.048-0.262-0.081
		c-0.129-0.051-0.252-0.115-0.374-0.184c-0.055-0.031-0.114-0.057-0.167-0.091c-0.175-0.115-0.342-0.245-0.494-0.398
		c-0.282-0.282-0.501-0.61-0.65-0.966c-0.034-0.082-0.053-0.171-0.08-0.257c-0.032-0.1-0.071-0.197-0.091-0.3
		C25.021,12.402,25,12.204,25,12V6h-5H17z M43.707,27.293c0.391,0.391,0.391,1.023,0,1.414C43.512,28.902,43.256,29,43,29
		s-0.512-0.098-0.707-0.293L40,26.414L35.414,31L40,35.586l2.293-2.293c0.391-0.391,1.023-0.391,1.414,0s0.391,1.023,0,1.414
		L41.414,37l2.293,2.293c0.391,0.391,0.391,1.023,0,1.414C43.512,40.902,43.256,41,43,41s-0.512-0.098-0.707-0.293L40,38.414
		L35.414,43L40,47.586l2.293-2.293c0.391-0.391,1.023-0.391,1.414,0s0.391,1.023,0,1.414L41.414,49l2.293,2.293
		c0.391,0.391,0.391,1.023,0,1.414C43.512,52.902,43.256,53,43,53s-0.512-0.098-0.707-0.293L40,50.414l-2.293,2.293
		C37.512,52.902,37.256,53,37,53s-0.512-0.098-0.707-0.293c-0.391-0.391-0.391-1.023,0-1.414L38.586,49L34,44.414L29.414,49
		l2.293,2.293c0.391,0.391,0.391,1.023,0,1.414C31.512,52.902,31.256,53,31,53s-0.512-0.098-0.707-0.293L28,50.414l-2.293,2.293
		C25.512,52.902,25.256,53,25,53s-0.512-0.098-0.707-0.293c-0.391-0.391-0.391-1.023,0-1.414L26.586,49L22,44.414L17.414,49
		l2.293,2.293c0.391,0.391,0.391,1.023,0,1.414C19.512,52.902,19.256,53,19,53s-0.512-0.098-0.707-0.293L16,50.414l-2.293,2.293
		C13.512,52.902,13.256,53,13,53s-0.512-0.098-0.707-0.293c-0.391-0.391-0.391-1.023,0-1.414L14.586,49l-2.293-2.293
		c-0.391-0.391-0.391-1.023,0-1.414s1.023-0.391,1.414,0L16,47.586L20.586,43L16,38.414l-2.293,2.293C13.512,40.902,13.256,41,13,41
		s-0.512-0.098-0.707-0.293c-0.391-0.391-0.391-1.023,0-1.414L14.586,37l-2.293-2.293c-0.391-0.391-0.391-1.023,0-1.414
		s1.023-0.391,1.414,0L16,35.586L20.586,31L16,26.414l-2.293,2.293C13.512,28.902,13.256,29,13,29s-0.512-0.098-0.707-0.293
		c-0.391-0.391-0.391-1.023,0-1.414L14.586,25l-2.293-2.293c-0.391-0.391-0.391-1.023,0-1.414s1.023-0.391,1.414,0L16,23.586
		l2.293-2.293c0.391-0.391,1.023-0.391,1.414,0s0.391,1.023,0,1.414L17.414,25L22,29.586L26.586,25l-2.293-2.293
		c-0.391-0.391-0.391-1.023,0-1.414s1.023-0.391,1.414,0L28,23.586l2.293-2.293c0.391-0.391,1.023-0.391,1.414,0
		c0.391,0.391,0.391,1.023,0,1.414L29.414,25L34,29.586L38.586,25l-2.293-2.293c-0.391-0.391-0.391-1.023,0-1.414
		s1.023-0.391,1.414,0L40,23.586l2.293-2.293c0.391-0.391,1.023-0.391,1.414,0s0.391,1.023,0,1.414L41.414,25L43.707,27.293z"/>
	<path d="M27,8h2c0.552,0,1-0.448,1-1s-0.448-1-1-1h-2c-0.552,0-1,0.448-1,1S26.448,8,27,8z M17.413,37l4.586-4.586L26.584,37
		l-4.586,4.586L17.413,37z M28,47.587l-4.586-4.586L28,38.416l4.586,4.586L28,47.587z M28,26.413l4.586,4.586L28,35.584
		l-4.586-4.586L28,26.413z M34,41.587l-4.586-4.586L34,32.416l4.586,4.586L34,41.587z"/>
</g>
</svg>