<?xml version="1.0" encoding="iso-8859-1"?>
<!-- Uploaded to: SVG Repo, www.svgrepo.com, Generator: SVG Repo Mixer Tools -->
<svg fill="#000000" height="800px" width="800px" version="1.1" id="Layer_1" xmlns="http://www.w3.org/2000/svg" xmlns:xlink="http://www.w3.org/1999/xlink" 
	 viewBox="0 0 512.007 512.007" xml:space="preserve">
<g>
	<g>
		<g>
			<path d="M192,128.003c11.797,0,21.333-9.557,21.333-21.333S203.797,85.337,192,85.337h-21.333V35.033
				c0-19.328-15.701-35.029-35.008-35.029H77.696c-19.307,0-35.029,15.701-35.029,35.029v50.304H21.333
				C9.536,85.337,0,94.894,0,106.67s9.536,21.333,21.333,21.333h21.333v57.536L3.584,244.163C1.259,247.683,0,251.801,0,256.003
				V490.67c0,11.776,9.536,21.333,21.333,21.333H192c11.797,0,21.333-9.557,21.333-21.333V256.003c0-4.203-1.237-8.32-3.584-11.84
				l-39.083-58.624v-57.536H192z M128,405.337H85.333c-11.797,0-21.333-9.557-21.333-21.333s9.536-21.333,21.333-21.333H128
				c11.797,0,21.333,9.557,21.333,21.333S139.797,405.337,128,405.337z M128,320.003H85.333C73.536,320.003,64,310.446,64,298.67
				s9.536-21.333,21.333-21.333H128c11.797,0,21.333,9.557,21.333,21.333S139.797,320.003,128,320.003z"/>
			<path d="M507.317,285.33c-4.053-5.056-10.176-8-16.64-8h-192c-6.485,0-12.587,2.944-16.661,8
				c-4.032,5.035-5.568,11.648-4.181,17.963l17.941,80.704h197.803l17.92-80.704C512.907,296.978,511.349,290.365,507.317,285.33z"
				/>
			<path d="M320.506,495.297c2.197,9.771,10.837,16.704,20.843,16.704h106.667c9.984,0,18.645-6.933,20.821-16.704l15.253-68.629
				H305.252L320.506,495.297z"/>
		</g>
	</g>
</g>
</svg>