<?xml version="1.0" encoding="iso-8859-1"?>
<!-- Uploaded to: SVG Repo, www.svgrepo.com, Generator: SVG Repo Mixer Tools -->
<svg fill="#000000" height="800px" width="800px" version="1.1" id="Layer_1" xmlns="http://www.w3.org/2000/svg" xmlns:xlink="http://www.w3.org/1999/xlink" 
	 viewBox="0 0 512 512" xml:space="preserve">
<g>
	<g>
		<path d="M224.582,167.564c-9.309-3.491-15.127-11.636-15.127-22.109v-40.727c0-6.982-4.655-11.636-11.636-11.636
			s-11.636,4.655-11.636,11.636v40.727c0,19.782,12.8,37.236,30.255,44.218C239.709,197.818,256,219.927,256,244.364v34.909H69.818
			v-34.909c0-24.436,15.127-46.545,39.564-54.691c18.618-5.818,30.255-24.436,30.255-44.218V69.818h58.182
			c6.982,0,11.636-4.655,11.636-11.636V11.636C209.455,4.655,204.8,0,197.818,0H128c-6.982,0-11.636,4.655-11.636,11.636v133.818
			c0,9.309-5.818,18.618-15.127,22.109c-32.582,11.636-54.691,41.891-54.691,76.8V384c0,6.982,4.655,11.636,11.636,11.636h162.909
			c6.982,0,11.636-4.655,11.636-11.636s-4.655-11.636-11.636-11.636H69.818v-69.818H256v174.545c0,6.982-4.655,11.636-11.636,11.636
			H81.455c-6.982,0-11.636-4.655-11.636-11.636v-46.545c0-6.982-4.655-11.636-11.636-11.636s-11.636,4.655-11.636,11.636v46.545
			c0,19.782,15.127,34.909,34.909,34.909h162.909c19.782,0,34.909-15.127,34.909-34.909V244.364
			C279.273,209.455,257.164,179.2,224.582,167.564z M139.636,23.273h46.545v23.273h-46.545V23.273z"/>
	</g>
</g>
<g>
	<g>
		<path d="M453.818,302.545H314.182c-6.982,0-11.636,4.655-11.636,11.636v34.909c0,6.982,4.655,11.636,11.636,11.636
			s11.636-4.655,11.636-11.636v-23.273h116.364v50.036c-22.109-8.145-47.709-4.655-65.164,10.473
			c-15.127,11.636-40.727,11.636-54.691,0c-3.491-1.164-5.818-2.327-8.145-2.327c-6.982,0-11.636,4.655-11.636,11.636v81.455
			c0,19.782,15.127,34.909,34.909,34.909h93.091c19.782,0,34.909-15.127,34.909-34.909V314.182
			C465.455,307.2,460.8,302.545,453.818,302.545z M442.182,477.091c0,6.982-4.655,11.636-11.636,11.636h-93.091
			c-6.982,0-11.636-4.655-11.636-11.636v-61.673c6.982,2.327,15.127,3.491,23.273,3.491c15.127,0,30.255-4.655,41.891-13.964
			c13.964-10.473,36.073-11.636,51.2-2.327V477.091z"/>
	</g>
</g>
</svg>