<?xml version="1.0" encoding="iso-8859-1"?>
<!-- Uploaded to: SVG Repo, www.svgrepo.com, Generator: SVG Repo Mixer Tools -->
<svg fill="#000000" height="800px" width="800px" version="1.1" id="Layer_1" xmlns="http://www.w3.org/2000/svg" xmlns:xlink="http://www.w3.org/1999/xlink" 
	 viewBox="0 0 512.009 512.009" xml:space="preserve">
<g>
	<g>
		<g>
			<path d="M85.333,277.338c-11.782,0-21.333,9.551-21.333,21.333c0,11.782,9.551,21.333,21.333,21.333H128
				c11.782,0,21.333-9.551,21.333-21.333c0-11.782-9.551-21.333-21.333-21.333H85.333z"/>
			<path d="M128,362.671H85.333c-11.782,0-21.333,9.551-21.333,21.333c0,11.782,9.551,21.333,21.333,21.333H128
				c11.782,0,21.333-9.551,21.333-21.333C149.333,372.222,139.782,362.671,128,362.671z"/>
			<path d="M490.667,277.338h-192c-13.648,0-23.786,12.638-20.825,25.961l42.667,192c2.169,9.761,10.826,16.705,20.825,16.705H448
				c9.999,0,18.656-6.945,20.825-16.705l42.667-192C514.453,289.976,504.315,277.338,490.667,277.338z M464.072,320.004
				l-14.243,64.092c-0.604-0.051-1.212-0.092-1.83-0.092H341.333c-0.618,0-1.225,0.041-1.829,0.092l-14.243-64.092H464.072z
				 M358.446,469.338l-9.482-42.667h91.404l-9.482,42.667H358.446z"/>
			<path d="M192,128.004c11.782,0,21.333-9.551,21.333-21.333c0-11.782-9.551-21.333-21.333-21.333h-21.333V35.034
				c0-19.355-15.674-35.029-35.029-35.029H77.696c-19.355,0-35.029,15.674-35.029,35.029v50.304H21.333
				C9.551,85.338,0,94.889,0,106.671c0,11.782,9.551,21.333,21.333,21.333h21.333v57.541L3.583,244.171
				C1.247,247.675,0,251.793,0,256.004v234.667c0,11.782,9.551,21.333,21.333,21.333H192c11.782,0,21.333-9.551,21.333-21.333
				V256.004c0-4.212-1.247-8.329-3.583-11.834l-39.084-58.626v-57.541H192z M85.333,42.671H128v42.667H85.333V42.671z
				 M170.667,469.338h-128V262.464l32.751-49.126h62.499l32.751,49.126V469.338z M128,170.671H85.333v-42.667H128V170.671z"/>
		</g>
	</g>
</g>
</svg>